<mxfile host="app.diagrams.net" modified="2021-11-13T10:55:20.477Z" agent="5.0 (Macintosh; Intel Mac OS X 10_15_7) AppleWebKit/537.36 (KHTML, like Gecko) Chrome/86.0.4240.193 Safari/537.36" etag="hRBKlBcjYBaa02AOzK2L" version="15.7.3" type="github">
  <diagram id="CZA0N2LGxyai92Y2YL3x" name="Page-1">
    <mxGraphModel dx="946" dy="536" grid="1" gridSize="10" guides="1" tooltips="1" connect="1" arrows="1" fold="1" page="1" pageScale="1" pageWidth="827" pageHeight="1169" math="0" shadow="0">
      <root>
        <mxCell id="0" />
        <mxCell id="1" parent="0" />
        <mxCell id="f4yIG2Xlh_7HaZL4ABCE-6" value="" style="html=1;align=center;verticalAlign=top;rounded=1;absoluteArcSize=1;arcSize=20;dashed=1;" vertex="1" parent="1">
          <mxGeometry x="145" y="110" width="290" height="210" as="geometry" />
        </mxCell>
        <mxCell id="f4yIG2Xlh_7HaZL4ABCE-2" value="NameServer" style="text;html=1;align=center;verticalAlign=middle;resizable=0;points=[];autosize=1;strokeColor=none;fillColor=none;" vertex="1" parent="1">
          <mxGeometry x="250" y="80" width="80" height="20" as="geometry" />
        </mxCell>
        <mxCell id="f4yIG2Xlh_7HaZL4ABCE-5" value="" style="edgeStyle=orthogonalEdgeStyle;rounded=0;orthogonalLoop=1;jettySize=auto;html=1;" edge="1" parent="1" source="f4yIG2Xlh_7HaZL4ABCE-3" target="f4yIG2Xlh_7HaZL4ABCE-4">
          <mxGeometry relative="1" as="geometry" />
        </mxCell>
        <mxCell id="f4yIG2Xlh_7HaZL4ABCE-3" value="&lt;pre&gt;DefaultRequestProcessor&lt;/pre&gt;&lt;pre&gt;接收各种请求&lt;/pre&gt;" style="rounded=0;whiteSpace=wrap;html=1;" vertex="1" parent="1">
          <mxGeometry x="185" y="230" width="210" height="60" as="geometry" />
        </mxCell>
        <mxCell id="f4yIG2Xlh_7HaZL4ABCE-4" value="&lt;pre&gt;RouteInfoManager&lt;/pre&gt;&lt;pre&gt;保存各种路由关系&lt;/pre&gt;" style="rounded=0;whiteSpace=wrap;html=1;" vertex="1" parent="1">
          <mxGeometry x="185" y="140" width="210" height="60" as="geometry" />
        </mxCell>
        <mxCell id="f4yIG2Xlh_7HaZL4ABCE-7" value="" style="rounded=0;whiteSpace=wrap;html=1;" vertex="1" parent="1">
          <mxGeometry x="175" y="400" width="230" height="140" as="geometry" />
        </mxCell>
        <mxCell id="f4yIG2Xlh_7HaZL4ABCE-8" value="&lt;pre&gt;MQClientInstance&lt;/pre&gt;" style="rounded=0;whiteSpace=wrap;html=1;" vertex="1" parent="1">
          <mxGeometry x="209" y="450" width="160" height="60" as="geometry" />
        </mxCell>
        <mxCell id="f4yIG2Xlh_7HaZL4ABCE-9" value="&lt;pre&gt;DefaultMQProducerImpl&lt;/pre&gt;" style="text;html=1;align=center;verticalAlign=middle;resizable=0;points=[];autosize=1;strokeColor=none;fillColor=none;" vertex="1" parent="1">
          <mxGeometry x="204" y="410" width="170" height="40" as="geometry" />
        </mxCell>
      </root>
    </mxGraphModel>
  </diagram>
</mxfile>
